<svg width="187" height="61" viewBox="0 0 187 61" fill="none" xmlns="http://www.w3.org/2000/svg">
<path d="M10.9375 17.4645V13.1818H29.3786V17.4645H22.7628V35H17.5639V17.4645H10.9375ZM37.2275 13.1818V35H31.954V13.1818H37.2275ZM40.538 13.1818H47.0685L52.6083 26.6903H52.864L58.4038 13.1818H64.9343V35H59.7994V21.598H59.6183L54.3768 34.8615H51.0955L45.854 21.5234H45.6729V35H40.538V13.1818ZM68.2235 35V13.1818H83.4366V17.4645H73.497V21.9389H82.6589V26.2322H73.497V30.7173H83.4366V35H68.2235ZM86.7392 35V13.1818H92.0126V30.7173H101.089V35H86.7392ZM103.819 35V13.1818H119.032V17.4645H109.093V21.9389H118.255V26.2322H109.093V30.7173H119.032V35H103.819ZM134.128 19.723C134.057 18.9418 133.741 18.3345 133.18 17.9013C132.626 17.4609 131.834 17.2408 130.804 17.2408C130.123 17.2408 129.554 17.3295 129.1 17.5071C128.645 17.6847 128.304 17.9297 128.077 18.2422C127.85 18.5476 127.733 18.8991 127.725 19.2969C127.711 19.6236 127.775 19.9112 127.917 20.1598C128.066 20.4084 128.279 20.6286 128.556 20.8203C128.841 21.005 129.181 21.1683 129.579 21.3104C129.977 21.4524 130.424 21.5767 130.922 21.6832L132.797 22.1094C133.876 22.3438 134.828 22.6562 135.652 23.0469C136.483 23.4375 137.179 23.9027 137.74 24.4425C138.308 24.9822 138.738 25.6037 139.029 26.3068C139.32 27.0099 139.469 27.7983 139.476 28.6719C139.469 30.0497 139.121 31.2322 138.432 32.2195C137.743 33.2067 136.752 33.9631 135.46 34.4886C134.174 35.0142 132.623 35.277 130.804 35.277C128.979 35.277 127.388 35.0036 126.032 34.4567C124.675 33.9098 123.62 33.0788 122.868 31.9638C122.115 30.8487 121.728 29.4389 121.706 27.7344H126.756C126.799 28.4375 126.987 29.0234 127.321 29.4922C127.654 29.9609 128.113 30.3161 128.695 30.5575C129.284 30.799 129.966 30.9197 130.74 30.9197C131.451 30.9197 132.054 30.8239 132.551 30.6321C133.056 30.4403 133.443 30.174 133.713 29.8331C133.983 29.4922 134.121 29.1016 134.128 28.6612C134.121 28.2493 133.993 27.8977 133.745 27.6065C133.496 27.3082 133.113 27.0526 132.594 26.8395C132.083 26.6193 131.429 26.4169 130.634 26.2322L128.354 25.6996C126.465 25.2663 124.977 24.5668 123.89 23.6009C122.804 22.6278 122.264 21.3139 122.271 19.6591C122.264 18.3097 122.626 17.1271 123.358 16.1115C124.089 15.0959 125.101 14.304 126.394 13.7358C127.686 13.1676 129.16 12.8835 130.815 12.8835C132.505 12.8835 133.972 13.1712 135.215 13.7464C136.465 14.3146 137.434 15.1136 138.123 16.1435C138.812 17.1733 139.164 18.3665 139.178 19.723H134.128ZM153.933 19.723C153.862 18.9418 153.546 18.3345 152.985 17.9013C152.431 17.4609 151.639 17.2408 150.609 17.2408C149.927 17.2408 149.359 17.3295 148.904 17.5071C148.45 17.6847 148.109 17.9297 147.882 18.2422C147.654 18.5476 147.537 18.8991 147.53 19.2969C147.516 19.6236 147.58 19.9112 147.722 20.1598C147.871 20.4084 148.084 20.6286 148.361 20.8203C148.645 21.005 148.986 21.1683 149.384 21.3104C149.782 21.4524 150.229 21.5767 150.726 21.6832L152.601 22.1094C153.681 22.3438 154.632 22.6562 155.456 23.0469C156.287 23.4375 156.983 23.9027 157.544 24.4425C158.113 24.9822 158.542 25.6037 158.833 26.3068C159.125 27.0099 159.274 27.7983 159.281 28.6719C159.274 30.0497 158.926 31.2322 158.237 32.2195C157.548 33.2067 156.557 33.9631 155.265 34.4886C153.979 35.0142 152.427 35.277 150.609 35.277C148.784 35.277 147.193 35.0036 145.836 34.4567C144.48 33.9098 143.425 33.0788 142.672 31.9638C141.919 30.8487 141.532 29.4389 141.511 27.7344H146.561C146.603 28.4375 146.792 29.0234 147.125 29.4922C147.459 29.9609 147.917 30.3161 148.5 30.5575C149.089 30.799 149.771 30.9197 150.545 30.9197C151.255 30.9197 151.859 30.8239 152.356 30.6321C152.86 30.4403 153.248 30.174 153.517 29.8331C153.787 29.4922 153.926 29.1016 153.933 28.6612C153.926 28.2493 153.798 27.8977 153.549 27.6065C153.301 27.3082 152.917 27.0526 152.399 26.8395C151.887 26.6193 151.234 26.4169 150.439 26.2322L148.159 25.6996C146.27 25.2663 144.782 24.5668 143.695 23.6009C142.608 22.6278 142.069 21.3139 142.076 19.6591C142.069 18.3097 142.431 17.1271 143.162 16.1115C143.894 15.0959 144.906 14.304 146.199 13.7358C147.491 13.1676 148.965 12.8835 150.62 12.8835C152.31 12.8835 153.777 13.1712 155.02 13.7464C156.27 14.3146 157.239 15.1136 157.928 16.1435C158.617 17.1733 158.968 18.3665 158.983 19.723H153.933Z" fill="black"/>
<path d="M17.1449 48V38.5455H22.8139V39.5611H18.2898V42.7557H22.3892V43.7713H18.2898V48H17.1449ZM38.2819 48H37.0816L40.5532 38.5455H41.735L45.2066 48H44.0063L41.181 40.0412H41.1072L38.2819 48ZM38.7251 44.3068H43.5631V45.3224H38.7251V44.3068ZM66.1497 40.9091C66.0943 40.4413 65.8696 40.0781 65.4757 39.8196C65.0818 39.5611 64.5986 39.4318 64.0261 39.4318C63.6076 39.4318 63.2413 39.4995 62.9274 39.6349C62.6166 39.7704 62.3734 39.9566 62.198 40.1935C62.0257 40.4305 61.9395 40.6998 61.9395 41.0014C61.9395 41.2538 61.9995 41.4708 62.1195 41.6523C62.2426 41.8308 62.3996 41.9801 62.5904 42.1001C62.7812 42.2171 62.9813 42.314 63.1906 42.391C63.3998 42.4648 63.5922 42.5249 63.7676 42.571L64.7278 42.8295C64.9741 42.8942 65.248 42.9834 65.5496 43.0973C65.8543 43.2112 66.1451 43.3666 66.4221 43.5636C66.7022 43.7575 66.933 44.0067 67.1146 44.3114C67.2961 44.6161 67.3869 44.9901 67.3869 45.4332C67.3869 45.9441 67.2531 46.4058 66.9853 46.8182C66.7206 47.2306 66.3328 47.5584 65.8219 47.8015C65.3141 48.0446 64.6971 48.1662 63.9707 48.1662C63.2937 48.1662 62.7074 48.0569 62.2119 47.8384C61.7194 47.6199 61.3317 47.3152 61.0485 46.9244C60.7684 46.5335 60.6099 46.0795 60.573 45.5625H61.7548C61.7856 45.9195 61.9056 46.215 62.1149 46.4489C62.3273 46.6797 62.595 46.852 62.9182 46.9659C63.2444 47.0767 63.5953 47.1321 63.9707 47.1321C64.4078 47.1321 64.8002 47.0613 65.1479 46.9197C65.4957 46.7751 65.7712 46.575 65.9743 46.3196C66.1774 46.0611 66.279 45.7595 66.279 45.4148C66.279 45.1009 66.1913 44.8454 66.0158 44.6484C65.8404 44.4515 65.6096 44.2914 65.3234 44.1683C65.0371 44.0452 64.7278 43.9375 64.3955 43.8452L63.2321 43.5128C62.4935 43.3004 61.9087 42.9973 61.4778 42.6033C61.047 42.2094 60.8315 41.6939 60.8315 41.0568C60.8315 40.5275 60.9746 40.0658 61.2609 39.6719C61.5502 39.2749 61.9379 38.9671 62.4242 38.7486C62.9136 38.527 63.4598 38.4162 64.0631 38.4162C64.6724 38.4162 65.2141 38.5254 65.6881 38.744C66.162 38.9594 66.5375 39.2549 66.8145 39.6303C67.0946 40.0058 67.2423 40.4321 67.2577 40.9091H66.1497ZM83.5693 48V38.5455H84.7142V42.7557H89.7554V38.5455H90.9003V48H89.7554V43.7713H84.7142V48H83.5693ZM108.637 38.5455V48H107.492V38.5455H108.637ZM133.21 43.2727C133.21 44.2699 133.03 45.1316 132.67 45.858C132.31 46.5843 131.816 47.1444 131.188 47.5384C130.56 47.9323 129.843 48.1293 129.037 48.1293C128.23 48.1293 127.513 47.9323 126.885 47.5384C126.258 47.1444 125.764 46.5843 125.404 45.858C125.044 45.1316 124.863 44.2699 124.863 43.2727C124.863 42.2756 125.044 41.4138 125.404 40.6875C125.764 39.9612 126.258 39.401 126.885 39.0071C127.513 38.6132 128.23 38.4162 129.037 38.4162C129.843 38.4162 130.56 38.6132 131.188 39.0071C131.816 39.401 132.31 39.9612 132.67 40.6875C133.03 41.4138 133.21 42.2756 133.21 43.2727ZM132.102 43.2727C132.102 42.4541 131.965 41.7631 131.691 41.1999C131.42 40.6367 131.053 40.2105 130.588 39.9212C130.126 39.6319 129.609 39.4872 129.037 39.4872C128.464 39.4872 127.946 39.6319 127.481 39.9212C127.019 40.2105 126.652 40.6367 126.378 41.1999C126.107 41.7631 125.971 42.4541 125.971 43.2727C125.971 44.0914 126.107 44.7823 126.378 45.3455C126.652 45.9087 127.019 46.335 127.481 46.6243C127.946 46.9136 128.464 47.0582 129.037 47.0582C129.609 47.0582 130.126 46.9136 130.588 46.6243C131.053 46.335 131.42 45.9087 131.691 45.3455C131.965 44.7823 132.102 44.0914 132.102 43.2727ZM156.932 38.5455V48H155.824L150.672 40.5767H150.58V48H149.435V38.5455H150.543L155.714 45.9872H155.806V38.5455H156.932Z" fill="black"/>
</svg>
