<svg width="24" height="25" viewBox="0 0 24 25" fill="none" xmlns="http://www.w3.org/2000/svg">
<g id="Frame 758531784" clip-path="url(#clip0_1_104)">
<rect width="24" height="24" transform="translate(0 0.5)" fill="white"/>
<path id="Vector 333" d="M2.76607 22.317L4.50444 9.02843C4.56957 8.53053 4.99385 8.15815 5.49599 8.15815H18.5615C19.0636 8.15815 19.4879 8.53053 19.553 9.02844L21.2914 22.317C21.3697 22.9157 20.9036 23.4467 20.2998 23.4467H3.75762C3.15383 23.4467 2.68775 22.9157 2.76607 22.317Z" stroke="black" stroke-width="2"/>
<path id="Ellipse 238" d="M15.837 11.8726L16.0054 5.7645C16.0776 3.57583 14.3618 1.74307 12.1731 1.67092C9.98447 1.59877 8.15172 3.31455 8.07956 5.50321L7.91117 11.6113" stroke="black" stroke-width="2" stroke-linecap="round"/>
</g>
<defs>
<clipPath id="clip0_1_104">
<rect width="24" height="24" fill="white" transform="translate(0 0.5)"/>
</clipPath>
</defs>
</svg>
