<svg width="88" height="83" viewBox="0 0 88 83" fill="none" xmlns="http://www.w3.org/2000/svg">
<g id="&#208;&#151;&#208;&#189;&#208;&#176;&#208;&#186;_&#209;&#129;&#208;&#190;&#208;&#190;&#209;&#130;&#208;&#178;&#208;&#181;&#209;&#130;&#209;&#129;&#209;&#130;&#208;&#178;&#208;&#184;&#209;&#143; 1">
<path id="Vector" fill-rule="evenodd" clip-rule="evenodd" d="M63 34V39.9589H67.1295V47H75.3867V39.9589H79V34H63Z" fill="black"/>
<g id="Group">
<g id="Group_2">
<path id="Vector_2" fill-rule="evenodd" clip-rule="evenodd" d="M71.2677 29.6809V18.4435C42.7219 2.39117 2.54297 13.5208 2.54297 40.1691C2.54297 69.8843 42.7207 77.3043 71.2677 62.8556V51.0845C60.6949 54.8294 42.7207 53.7594 42.7207 40.3821C42.7207 27.0047 58.4093 25.1354 71.2677 29.6809ZM25.198 44.653C24.1396 44.653 23.6104 44.653 22.552 44.1238V37.9861C22.7931 38.1144 23.0812 38.303 25.198 38.303C27.3143 38.303 29.9604 36.716 29.9604 33.5407C29.9604 30.3654 27.4067 28.7784 25.198 28.7784C23.0209 28.7784 20.4351 30.8946 20.4351 33.5407L20.3177 57.897C17.5542 57.7905 14.681 56.1502 14.1601 53.1648L14.1518 32.7382C14.1871 27.344 19.0463 22.429 24.9626 22.429C30.9213 22.429 36.3091 27.1914 36.3091 33.6542C36.3097 40.1165 30.4896 44.653 25.198 44.653Z" fill="black"/>
</g>
</g>
</g>
</svg>
